<?xml version="1.0" encoding="UTF-8"?>
<!DOCTYPE svg PUBLIC "-//W3C//DTD SVG 1.1//EN" "http://www.w3.org/Graphics/SVG/1.1/DTD/svg11.dtd">
<svg xmlns="http://www.w3.org/2000/svg" version="1.1" width="6615px" height="2197px" style="shape-rendering:geometricPrecision; text-rendering:geometricPrecision; image-rendering:optimizeQuality; fill-rule:evenodd; clip-rule:evenodd" xmlns:xlink="http://www.w3.org/1999/xlink">
<g><path style="opacity:0.995" fill="#2f5fda" d="M 851.5,236.5 C 934.288,232.303 997.121,265.303 1040,335.5C 1072.27,398.333 1072.6,461.333 1041,524.5C 998.479,596.185 935.312,629.685 851.5,625C 767.516,613.012 712.016,566.845 685,486.5C 664.982,405.578 685.482,337.078 746.5,281C 777.252,256.138 812.252,241.305 851.5,236.5 Z"/></g>
<g><path style="opacity:0.996" fill="#203a7b" d="M 1586.5,506.5 C 1606.5,505.24 1620.67,513.573 1629,531.5C 1630.74,535.661 1631.74,539.995 1632,544.5C 1632.67,950.833 1632.67,1357.17 1632,1763.5C 1628.02,1786.63 1614.19,1798.63 1590.5,1799.5C 1580.93,1799.02 1571.93,1796.52 1563.5,1792C 1486.01,1734.42 1408.34,1677.09 1330.5,1620C 1317.99,1608.64 1312.66,1594.48 1314.5,1577.5C 1316.42,1356.51 1317.76,1135.51 1318.5,914.5C 1109.02,984.828 899.683,1055.66 690.5,1127C 676.545,1130.34 663.879,1127.68 652.5,1119C 578.167,1064 503.833,1009 429.5,954C 414.743,937.771 412.576,919.938 423,900.5C 427.723,893.112 434.223,887.945 442.5,885C 823.928,758.69 1205.26,632.524 1586.5,506.5 Z"/></g>
<g><path style="opacity:0.99" fill="#19252b" d="M 4234.5,696.5 C 4275.26,694.386 4314.92,699.886 4353.5,713C 4372.04,720.269 4389.38,729.603 4405.5,741C 4424.09,757.272 4429.26,777.105 4421,800.5C 4406.34,826.84 4384.51,835.34 4355.5,826C 4346.9,821.061 4338.57,815.728 4330.5,810C 4289.96,787.55 4247.63,783.216 4203.5,797C 4153.48,820.132 4125.31,859.298 4119,914.5C 4114.59,964.474 4130.42,1006.64 4166.5,1041C 4205.49,1070.28 4248.82,1078.95 4296.5,1067C 4314.31,1063.09 4330.64,1055.93 4345.5,1045.5C 4346.5,1024.18 4346.83,1002.84 4346.5,981.5C 4322.16,981.667 4297.83,981.5 4273.5,981C 4244.03,973.247 4232.53,954.414 4239,924.5C 4244.76,909.744 4255.26,900.244 4270.5,896C 4314.83,895.333 4359.17,895.333 4403.5,896C 4425.56,901.389 4438.72,915.223 4443,937.5C 4443.67,979.833 4443.67,1022.17 4443,1064.5C 4441.16,1084.03 4432.66,1099.86 4417.5,1112C 4336.71,1164.21 4250.38,1175.87 4158.5,1147C 4076.43,1113.44 4028.93,1052.6 4016,964.5C 4006.02,883.093 4030.19,813.927 4088.5,757C 4130.33,720.593 4179,700.426 4234.5,696.5 Z"/></g>
<g><path style="opacity:0.989" fill="#19252b" d="M 6010.5,697.5 C 6066.97,695.781 6118.97,709.947 6166.5,740C 6186.62,758.957 6189.79,780.457 6176,804.5C 6161.53,821.666 6143.36,827.166 6121.5,821C 6105.6,812.216 6089.26,804.216 6072.5,797C 6048.63,787.351 6023.96,784.351 5998.5,788C 5985.99,790.334 5975.49,796.168 5967,805.5C 5958.02,820.966 5958.68,835.966 5969,850.5C 5979.91,859.207 5992.08,865.707 6005.5,870C 6037.59,879.023 6069.59,888.356 6101.5,898C 6189.56,928.628 6219.06,988.462 6190,1077.5C 6175.74,1109.76 6152.24,1132.59 6119.5,1146C 6079.65,1160.74 6038.65,1165.07 5996.5,1159C 5948.03,1152.63 5904.03,1135.3 5864.5,1107C 5844.58,1087.97 5841.41,1066.47 5855,1042.5C 5870.53,1024.49 5889.7,1019.32 5912.5,1027C 5923.5,1034 5934.5,1041 5945.5,1048C 5979.02,1067.38 6015.02,1075.38 6053.5,1072C 6070.07,1070.49 6083.91,1063.66 6095,1051.5C 6107.53,1025.46 6100.7,1006.29 6074.5,994C 6068.95,991.39 6063.28,989.057 6057.5,987C 6029.16,978.289 6000.66,970.123 5972,962.5C 5946.44,955.466 5922.94,944.299 5901.5,929C 5879.45,911.086 5866.62,887.92 5863,859.5C 5855.12,776.726 5891.28,724.559 5971.5,703C 5984.52,700.249 5997.52,698.416 6010.5,697.5 Z"/></g>
<g><path style="opacity:0.991" fill="#19252b" d="M 2502.5,700.5 C 2535.73,698.576 2555.23,713.91 2561,746.5C 2561.67,868.833 2561.67,991.167 2561,1113.5C 2556.63,1142.2 2539.97,1157.2 2511,1158.5C 2484.8,1157.3 2468.47,1143.97 2462,1118.5C 2461.33,992.5 2461.33,866.5 2462,740.5C 2467.46,718.87 2480.96,705.537 2502.5,700.5 Z"/></g>
<g><path style="opacity:0.989" fill="#19252b" d="M 2682.5,700.5 C 2710.92,697.784 2730.75,709.451 2742,735.5C 2778.89,831.62 2816.06,927.62 2853.5,1023.5C 2891.28,926.985 2928.78,830.318 2966,733.5C 2980.51,704.656 3003.34,694.823 3034.5,704C 3061.43,718.109 3069.93,739.609 3060,768.5C 3009.8,888.085 2959.8,1007.75 2910,1127.5C 2898.14,1151.02 2878.97,1162.69 2852.5,1162.5C 2822.91,1162.63 2802.74,1148.96 2792,1121.5C 2742.14,1002.25 2692.47,882.914 2643,763.5C 2637.32,730.397 2650.49,709.397 2682.5,700.5 Z"/></g>
<g><path style="opacity:0.99" fill="#19252b" d="M 5311.5,700.5 C 5333.24,698.457 5350.08,706.457 5362,724.5C 5365.2,730.095 5367.2,736.095 5368,742.5C 5368.67,866.833 5368.67,991.167 5368,1115.5C 5363.5,1138.67 5349.67,1152.5 5326.5,1157C 5308.7,1159.82 5292.7,1155.82 5278.5,1145C 5272.97,1139.8 5267.8,1134.3 5263,1128.5C 5197.67,1042.5 5132.33,956.5 5067,870.5C 5066.99,954.536 5066.32,1038.54 5065,1122.5C 5055.29,1149.45 5036.13,1161.28 5007.5,1158C 4983.76,1152.03 4970.6,1136.86 4968,1112.5C 4967.33,991.167 4967.33,869.833 4968,748.5C 4971.15,722.35 4985.65,706.85 5011.5,702C 5038.76,697.527 5060.93,706.027 5078,727.5C 5141.67,811.167 5205.33,894.833 5269,978.5C 5269.02,898.474 5269.69,818.474 5271,738.5C 5276.68,717.318 5290.18,704.651 5311.5,700.5 Z"/></g>
<g><path style="opacity:0.992" fill="#19252b" d="M 1995.5,704.5 C 2047.5,704.333 2099.5,704.5 2151.5,705C 2217.17,708.926 2272.34,734.759 2317,782.5C 2360.76,836.201 2377.43,897.534 2367,966.5C 2351.21,1050.27 2303.71,1107.77 2224.5,1139C 2201.85,1147.16 2178.51,1152.16 2154.5,1154C 2100.83,1154.67 2047.17,1154.67 1993.5,1154C 1972.48,1148.31 1959.64,1134.81 1955,1113.5C 1954.33,990.833 1954.33,868.167 1955,745.5C 1960.01,723.32 1973.51,709.653 1995.5,704.5 Z M 2054.5,794.5 C 2083.84,794.333 2113.17,794.5 2142.5,795C 2208.72,801.684 2248.88,837.517 2263,902.5C 2270.94,947.737 2260.61,988.07 2232,1023.5C 2210.57,1045.8 2184.4,1058.97 2153.5,1063C 2120.53,1064.44 2087.53,1064.94 2054.5,1064.5C 2054.5,974.5 2054.5,884.5 2054.5,794.5 Z"/></g>
<g><path style="opacity:0.99" fill="#19252b" d="M 3179.5,704.5 C 3268.5,704.333 3357.5,704.5 3446.5,705C 3469.52,710.857 3481.85,725.69 3483.5,749.5C 3481.96,771.54 3470.62,785.707 3449.5,792C 3379.2,793.48 3308.86,793.98 3238.5,793.5C 3238.5,823.5 3238.5,853.5 3238.5,883.5C 3299.54,883.019 3360.54,883.519 3421.5,885C 3442.26,892 3453.26,906.5 3454.5,928.5C 3453.06,950.105 3442.06,964.272 3421.5,971C 3360.54,972.481 3299.54,972.981 3238.5,972.5C 3238.5,1003.5 3238.5,1034.5 3238.5,1065.5C 3309.52,1065.03 3380.52,1065.53 3451.5,1067C 3471.4,1072.28 3482.9,1085.12 3486,1105.5C 3486.95,1130.55 3475.45,1146.71 3451.5,1154C 3360.5,1154.67 3269.5,1154.67 3178.5,1154C 3154.47,1147.79 3141.3,1132.29 3139,1107.5C 3138.33,988.833 3138.33,870.167 3139,751.5C 3142.04,726.638 3155.54,710.971 3179.5,704.5 Z"/></g>
<g><path style="opacity:0.991" fill="#19252b" d="M 3610.5,704.5 C 3672.5,704.333 3734.5,704.5 3796.5,705C 3837.43,706.856 3873.43,720.856 3904.5,747C 3933.08,776.725 3946.75,812.392 3945.5,854C 3946,919.77 3916.33,965.77 3856.5,992C 3882.05,1022.54 3907.21,1053.38 3932,1084.5C 3945.34,1107.64 3942.84,1128.81 3924.5,1148C 3906.98,1159.68 3888.31,1161.68 3868.5,1154C 3858.19,1149.03 3849.69,1141.86 3843,1132.5C 3811.69,1092.36 3780.19,1052.36 3748.5,1012.5C 3722.18,1011.5 3695.84,1011.17 3669.5,1011.5C 3669.67,1046.17 3669.5,1080.83 3669,1115.5C 3663.78,1142.89 3647.28,1157.23 3619.5,1158.5C 3592.59,1157.42 3576.09,1143.75 3570,1117.5C 3569.33,993.5 3569.33,869.5 3570,745.5C 3575.01,723.32 3588.51,709.653 3610.5,704.5 Z M 3669.5,794.5 C 3705.83,794.333 3742.17,794.5 3778.5,795C 3828.74,800.23 3849.91,827.73 3842,877.5C 3836.08,895.755 3824.25,908.588 3806.5,916C 3798.43,919.101 3790.1,921.101 3781.5,922C 3744.17,922.5 3706.83,922.667 3669.5,922.5C 3669.5,879.833 3669.5,837.167 3669.5,794.5 Z"/></g>
<g><path style="opacity:0.991" fill="#19252b" d="M 4578.5,704.5 C 4667.5,704.333 4756.5,704.5 4845.5,705C 4871.44,712.296 4883.27,729.463 4881,756.5C 4876.63,777.532 4863.8,789.699 4842.5,793C 4773.83,793.5 4705.17,793.667 4636.5,793.5C 4636.5,823.5 4636.5,853.5 4636.5,883.5C 4697.54,883.019 4758.54,883.519 4819.5,885C 4843.83,893.474 4854.67,910.641 4852,936.5C 4848.12,954.051 4837.62,965.551 4820.5,971C 4759.2,972.481 4697.87,972.981 4636.5,972.5C 4636.5,1003.5 4636.5,1034.5 4636.5,1065.5C 4707.86,1065.03 4779.19,1065.53 4850.5,1067C 4875.86,1075.38 4887.03,1092.88 4884,1119.5C 4879.83,1138.33 4868.33,1149.83 4849.5,1154C 4758.5,1154.67 4667.5,1154.67 4576.5,1154C 4555,1148.17 4542.17,1134.33 4538,1112.5C 4537.33,990.5 4537.33,868.5 4538,746.5C 4542.57,723.768 4556.07,709.768 4578.5,704.5 Z"/></g>
<g><path style="opacity:0.991" fill="#19252b" d="M 5469.5,704.5 C 5571.5,704.333 5673.5,704.5 5775.5,705C 5798.56,711.072 5811.23,726.072 5813.5,750C 5811.64,774.855 5798.64,790.188 5774.5,796C 5740.5,796.5 5706.5,796.667 5672.5,796.5C 5672.67,902.834 5672.5,1009.17 5672,1115.5C 5666.81,1142.86 5650.31,1157.19 5622.5,1158.5C 5595.14,1157.31 5578.64,1143.31 5573,1116.5C 5572.5,1009.83 5572.33,903.167 5572.5,796.5C 5538.5,796.667 5504.5,796.5 5470.5,796C 5446.59,790.251 5433.59,775.084 5431.5,750.5C 5433.36,726.049 5446.03,710.716 5469.5,704.5 Z"/></g>
<g><path style="opacity:0.961" fill="#19252b" d="M 2794.5,1281.5 C 2803.73,1280.19 2809.9,1283.86 2813,1292.5C 2813.33,1324.83 2813.67,1357.17 2814,1389.5C 2828.49,1366.9 2849.33,1355.57 2876.5,1355.5C 2920.13,1357.96 2943.96,1380.96 2948,1424.5C 2948.67,1461.83 2948.67,1499.17 2948,1536.5C 2945.46,1546.02 2939.3,1549.86 2929.5,1548C 2924.33,1546.83 2921.17,1543.67 2920,1538.5C 2919.67,1502.17 2919.33,1465.83 2919,1429.5C 2912.72,1392.26 2890.89,1377.09 2853.5,1384C 2831.07,1391.09 2817.91,1406.26 2814,1429.5C 2813.67,1465.5 2813.33,1501.5 2813,1537.5C 2809.13,1547.8 2801.96,1550.97 2791.5,1547C 2789.33,1545.5 2787.5,1543.67 2786,1541.5C 2784.34,1458.22 2784.01,1374.89 2785,1291.5C 2787.05,1286.96 2790.21,1283.62 2794.5,1281.5 Z"/></g>
<g><path style="opacity:0.956" fill="#19252b" d="M 2464.5,1286.5 C 2482.81,1287.41 2488.98,1296.75 2483,1314.5C 2474.42,1323.27 2465.08,1324.27 2455,1317.5C 2454,1315.83 2453,1314.17 2452,1312.5C 2451.33,1307.17 2451.33,1301.83 2452,1296.5C 2454.43,1290.88 2458.6,1287.55 2464.5,1286.5 Z"/></g>
<g><path style="opacity:0.961" fill="#19252b" d="M 3028.5,1301.5 C 3036.3,1301.63 3041.46,1305.3 3044,1312.5C 3044.5,1328.16 3044.67,1343.83 3044.5,1359.5C 3061.17,1359.33 3077.84,1359.5 3094.5,1360C 3104.92,1363.57 3107.75,1370.41 3103,1380.5C 3101.05,1382.89 3098.55,1384.39 3095.5,1385C 3078.5,1385.5 3061.5,1385.67 3044.5,1385.5C 3044.33,1423.5 3044.5,1461.5 3045,1499.5C 3047.91,1516.56 3058.07,1524.56 3075.5,1523.5C 3082.52,1522.82 3089.52,1522.32 3096.5,1522C 3103.13,1525.09 3105.63,1530.26 3104,1537.5C 3103.65,1539.85 3102.49,1541.68 3100.5,1543C 3079.5,1553 3058.5,1553 3037.5,1543C 3023.42,1533.35 3016.25,1519.85 3016,1502.5C 3015.5,1463.5 3015.33,1424.5 3015.5,1385.5C 3008.74,1385.88 3002.08,1385.38 2995.5,1384C 2988.13,1378.93 2986.63,1372.43 2991,1364.5C 2992.21,1362.95 2993.71,1361.78 2995.5,1361C 3002.08,1359.62 3008.74,1359.12 3015.5,1359.5C 3015.33,1344.16 3015.5,1328.83 3016,1313.5C 3017.46,1306.54 3021.63,1302.54 3028.5,1301.5 Z"/></g>
<g><path style="opacity:0.962" fill="#19252b" d="M 3457.5,1301.5 C 3465.03,1301.87 3470.2,1305.54 3473,1312.5C 3473.5,1328.16 3473.67,1343.83 3473.5,1359.5C 3490.17,1359.33 3506.84,1359.5 3523.5,1360C 3534.18,1364.37 3536.68,1371.54 3531,1381.5C 3529.07,1383.1 3526.9,1384.27 3524.5,1385C 3507.5,1385.5 3490.5,1385.67 3473.5,1385.5C 3473.33,1424.17 3473.5,1462.83 3474,1501.5C 3477.74,1517.23 3487.74,1524.57 3504,1523.5C 3511.19,1522.9 3518.36,1522.4 3525.5,1522C 3534.34,1527.53 3535.67,1534.53 3529.5,1543C 3512.01,1550.94 3494.01,1552.28 3475.5,1547C 3456.61,1539.75 3446.44,1525.92 3445,1505.5C 3444.5,1465.5 3444.33,1425.5 3444.5,1385.5C 3438.49,1385.67 3432.49,1385.5 3426.5,1385C 3417.93,1380.95 3415.43,1374.45 3419,1365.5C 3420.54,1363.62 3422.38,1362.12 3424.5,1361C 3431.08,1359.62 3437.74,1359.12 3444.5,1359.5C 3444.33,1343.83 3444.5,1328.16 3445,1312.5C 3446.89,1306.15 3451.06,1302.49 3457.5,1301.5 Z"/></g>
<g><path style="opacity:0.977" fill="#19252b" d="M 3945.5,1301.5 C 3953.05,1301.19 3958.22,1304.52 3961,1311.5C 3961.5,1327.5 3961.67,1343.5 3961.5,1359.5C 3978.17,1359.33 3994.84,1359.5 4011.5,1360C 4018.76,1361.26 4022.42,1365.59 4022.5,1373C 4022.22,1378.96 4019.22,1382.96 4013.5,1385C 3996.17,1385.5 3978.84,1385.67 3961.5,1385.5C 3961.33,1422.17 3961.5,1458.83 3962,1495.5C 3963.07,1514.74 3973.24,1524.07 3992.5,1523.5C 3998.41,1523.51 4004.25,1522.85 4010,1521.5C 4020.99,1523.81 4024.32,1530.14 4020,1540.5C 4014.42,1545.26 4007.92,1548.09 4000.5,1549C 3984.02,1551.91 3968.36,1549.58 3953.5,1542C 3941.99,1533.82 3935.49,1522.66 3934,1508.5C 3933.5,1467.5 3933.33,1426.5 3933.5,1385.5C 3926.41,1385.88 3919.41,1385.38 3912.5,1384C 3902.93,1375.93 3903.26,1368.27 3913.5,1361C 3920.08,1359.62 3926.74,1359.12 3933.5,1359.5C 3933.33,1343.5 3933.5,1327.5 3934,1311.5C 3936.21,1306.11 3940.04,1302.78 3945.5,1301.5 Z"/></g>
<g><path style="opacity:0.977" fill="#19252b" d="M 4856.5,1301.5 C 4863.71,1301.69 4868.88,1305.02 4872,1311.5C 4872.5,1327.5 4872.67,1343.5 4872.5,1359.5C 4889.17,1359.33 4905.84,1359.5 4922.5,1360C 4932.44,1363.04 4935.6,1369.54 4932,1379.5C 4929.9,1382.47 4927.07,1384.3 4923.5,1385C 4906.5,1385.5 4889.5,1385.67 4872.5,1385.5C 4872.33,1422.83 4872.5,1460.17 4873,1497.5C 4875.01,1515.67 4885.17,1524.34 4903.5,1523.5C 4910.53,1522.92 4917.53,1522.42 4924.5,1522C 4931.97,1525.12 4934.47,1530.62 4932,1538.5C 4930.88,1540.62 4929.38,1542.46 4927.5,1544C 4905.3,1553.31 4883.63,1552.31 4862.5,1541C 4852.63,1532.77 4846.8,1522.27 4845,1509.5C 4844.5,1468.17 4844.33,1426.83 4844.5,1385.5C 4837.41,1385.88 4830.41,1385.38 4823.5,1384C 4814.17,1376.33 4814.17,1368.67 4823.5,1361C 4830.43,1359.66 4837.43,1359.16 4844.5,1359.5C 4844.33,1343.16 4844.5,1326.83 4845,1310.5C 4847.59,1305.72 4851.43,1302.72 4856.5,1301.5 Z"/></g>
<g><path style="opacity:0.966" fill="#19252b" d="M 2618.5,1355.5 C 2649.57,1354.79 2674.74,1366.45 2694,1390.5C 2694.33,1383.83 2694.67,1377.17 2695,1370.5C 2698.97,1358.26 2706.8,1355.09 2718.5,1361C 2720.62,1362.73 2722.12,1364.9 2723,1367.5C 2723.67,1420.83 2723.67,1474.17 2723,1527.5C 2717.67,1572.5 2692.5,1598 2647.5,1604C 2612.42,1608.12 2579.76,1601.12 2549.5,1583C 2543.41,1578.01 2541.91,1571.84 2545,1564.5C 2549.02,1559.41 2554.18,1557.57 2560.5,1559C 2591.81,1580.39 2625.47,1585.39 2661.5,1574C 2682.24,1563.23 2693.41,1546.06 2695,1522.5C 2695.67,1513.17 2695.67,1503.83 2695,1494.5C 2667.2,1530.33 2631.7,1540.83 2588.5,1526C 2547.6,1506.37 2530.1,1473.87 2536,1428.5C 2546.16,1384.5 2573.66,1360.17 2618.5,1355.5 Z M 2618.5,1381.5 C 2644.18,1379.33 2665.68,1387.67 2683,1406.5C 2700.37,1430.94 2700.7,1455.6 2684,1480.5C 2662.44,1504.43 2636.27,1511.93 2605.5,1503C 2573.3,1488.43 2560.13,1463.6 2566,1428.5C 2573.61,1401.72 2591.11,1386.05 2618.5,1381.5 Z"/></g>
<g><path style="opacity:0.96" fill="#19252b" d="M 4136.5,1355.5 C 4180.91,1355.42 4210.08,1376.42 4224,1418.5C 4228.06,1431.32 4229.06,1444.32 4227,1457.5C 4224.66,1460.84 4221.49,1463 4217.5,1464C 4172.17,1464.5 4126.83,1464.67 4081.5,1464.5C 4084.41,1494.9 4100.41,1514.74 4129.5,1524C 4156.36,1529.45 4179.69,1522.79 4199.5,1504C 4210.54,1498.52 4217.54,1501.69 4220.5,1513.5C 4220.31,1515.58 4219.81,1517.58 4219,1519.5C 4197.41,1542.86 4170.58,1553.36 4138.5,1551C 4093.08,1545.71 4064.92,1520.88 4054,1476.5C 4046.42,1436.58 4057.25,1402.75 4086.5,1375C 4101.29,1363.46 4117.95,1356.96 4136.5,1355.5 Z M 4132.5,1380.5 C 4168.4,1379.22 4190.24,1396.22 4198,1431.5C 4198.94,1435.11 4199.44,1438.78 4199.5,1442.5C 4160.17,1442.5 4120.83,1442.5 4081.5,1442.5C 4083.68,1418.63 4094.68,1400.13 4114.5,1387C 4120.43,1384.3 4126.43,1382.14 4132.5,1380.5 Z"/></g>
<g><path style="opacity:0.965" fill="#19252b" d="M 4348.5,1355.5 C 4380.2,1354.77 4405.7,1366.77 4425,1391.5C 4425.33,1384.17 4425.67,1376.83 4426,1369.5C 4429.03,1359.9 4435.53,1356.4 4445.5,1359C 4450.06,1360.63 4452.9,1363.79 4454,1368.5C 4454.67,1420.83 4454.67,1473.17 4454,1525.5C 4448.93,1570.91 4423.76,1597.07 4378.5,1604C 4342.01,1608.46 4308.35,1600.79 4277.5,1581C 4271.72,1573.09 4272.72,1566.09 4280.5,1560C 4284.83,1558 4289.17,1558 4293.5,1560C 4325.03,1581.15 4358.7,1585.48 4394.5,1573C 4411.71,1563.11 4421.88,1548.28 4425,1528.5C 4426.39,1517.2 4426.72,1505.86 4426,1494.5C 4398.1,1530.02 4362.6,1540.52 4319.5,1526C 4281.05,1508.29 4263.21,1478.12 4266,1435.5C 4270.75,1396.41 4291.92,1370.91 4329.5,1359C 4335.93,1357.6 4342.27,1356.43 4348.5,1355.5 Z M 4349.5,1381.5 C 4378.24,1379.23 4401.08,1389.56 4418,1412.5C 4433.63,1444.36 4427.79,1471.53 4400.5,1494C 4370.96,1512.47 4342.29,1511.13 4314.5,1490C 4295.72,1470.02 4290.55,1446.85 4299,1420.5C 4308.93,1398.46 4325.77,1385.46 4349.5,1381.5 Z"/></g>
<g><path style="opacity:0.966" fill="#19252b" d="M 5055.5,1355.5 C 5098.31,1355.14 5129.48,1373.81 5149,1411.5C 5164.68,1450.74 5159.35,1486.74 5133,1519.5C 5101.06,1550.75 5063.9,1558.91 5021.5,1544C 4977.62,1522.1 4958.46,1486.6 4964,1437.5C 4972.04,1397.46 4995.54,1371.29 5034.5,1359C 5041.58,1357.44 5048.58,1356.28 5055.5,1355.5 Z M 5050.5,1381.5 C 5087.7,1379.84 5112.53,1396.51 5125,1431.5C 5133.02,1461.91 5125.86,1488.08 5103.5,1510C 5074.28,1530.94 5045.28,1530.6 5016.5,1509C 4992.59,1484.44 4986.42,1455.94 4998,1423.5C 5008.3,1400.36 5025.8,1386.36 5050.5,1381.5 Z"/></g>
<g><path style="opacity:0.966" fill="#19252b" d="M 5387.5,1355.5 C 5418.57,1354.79 5443.74,1366.45 5463,1390.5C 5463.33,1383.83 5463.67,1377.17 5464,1370.5C 5467.97,1358.26 5475.8,1355.09 5487.5,1361C 5489.62,1362.73 5491.12,1364.9 5492,1367.5C 5492.67,1420.83 5492.67,1474.17 5492,1527.5C 5486.67,1572.5 5461.5,1598 5416.5,1604C 5381.42,1608.12 5348.76,1601.12 5318.5,1583C 5312.41,1578.01 5310.91,1571.84 5314,1564.5C 5318.02,1559.41 5323.18,1557.57 5329.5,1559C 5360.81,1580.39 5394.47,1585.39 5430.5,1574C 5451.24,1563.23 5462.41,1546.06 5464,1522.5C 5464.67,1513.17 5464.67,1503.83 5464,1494.5C 5436.2,1530.33 5400.7,1540.83 5357.5,1526C 5316.6,1506.37 5299.1,1473.87 5305,1428.5C 5315.16,1384.5 5342.66,1360.17 5387.5,1355.5 Z M 5387.5,1381.5 C 5413.18,1379.33 5434.68,1387.67 5452,1406.5C 5467.3,1428.14 5468.96,1450.81 5457,1474.5C 5436.01,1502.94 5408.51,1512.44 5374.5,1503C 5342.3,1488.43 5329.13,1463.6 5335,1428.5C 5342.61,1401.72 5360.11,1386.05 5387.5,1381.5 Z"/></g>
<g><path style="opacity:0.966" fill="#19252b" d="M 5772.5,1355.5 C 5815.31,1355.14 5846.48,1373.81 5866,1411.5C 5881.68,1450.74 5876.35,1486.74 5850,1519.5C 5818.06,1550.75 5780.9,1558.91 5738.5,1544C 5694.63,1522.1 5675.46,1486.6 5681,1437.5C 5689.04,1397.46 5712.54,1371.29 5751.5,1359C 5758.58,1357.44 5765.58,1356.28 5772.5,1355.5 Z M 5767.5,1381.5 C 5804.7,1379.84 5829.53,1396.51 5842,1431.5C 5850.02,1461.91 5842.86,1488.08 5820.5,1510C 5791.28,1530.94 5762.28,1530.6 5733.5,1509C 5709.59,1484.44 5703.42,1455.94 5715,1423.5C 5725.3,1400.36 5742.8,1386.36 5767.5,1381.5 Z"/></g>
<g><path style="opacity:0.962" fill="#19252b" d="M 3307.5,1356.5 C 3332.39,1355.44 3355.72,1360.94 3377.5,1373C 3384.6,1379.43 3385.26,1386.43 3379.5,1394C 3375.11,1396.37 3370.44,1397.04 3365.5,1396C 3347.02,1384.71 3327.02,1380.05 3305.5,1382C 3288.82,1384.99 3280.66,1394.82 3281,1411.5C 3282.24,1416.74 3285.07,1420.91 3289.5,1424C 3294.34,1426.92 3299.34,1429.59 3304.5,1432C 3318.79,1436.82 3333.12,1441.49 3347.5,1446C 3387.34,1460.85 3397.84,1487.35 3379,1525.5C 3366.77,1540.37 3350.93,1548.54 3331.5,1550C 3301.96,1551.82 3274.96,1544.48 3250.5,1528C 3244.89,1523.82 3243.05,1518.32 3245,1511.5C 3249.02,1504.86 3254.85,1502.7 3262.5,1505C 3280.36,1518.01 3300.36,1525.18 3322.5,1526.5C 3335.11,1526.36 3345.95,1522.02 3355,1513.5C 3363.34,1500.94 3362.18,1489.44 3351.5,1479C 3346.73,1475.9 3341.73,1473.23 3336.5,1471C 3321.55,1466.18 3306.55,1461.51 3291.5,1457C 3253.31,1442.43 3243.48,1416.93 3262,1380.5C 3268.42,1372.09 3276.58,1365.92 3286.5,1362C 3293.45,1359.45 3300.45,1357.62 3307.5,1356.5 Z"/></g>
<g><path style="opacity:0.965" fill="#19252b" d="M 2044.5,1357.5 C 2063.31,1355.94 2081.64,1358.11 2099.5,1364C 2124.21,1375.55 2137.37,1395.05 2139,1422.5C 2139.67,1461.17 2139.67,1499.83 2139,1538.5C 2135.75,1547.04 2129.58,1550.21 2120.5,1548C 2115.9,1546.4 2113.07,1543.24 2112,1538.5C 2111.67,1532.83 2111.33,1527.17 2111,1521.5C 2083.27,1549.97 2050.44,1557.81 2012.5,1545C 1982.29,1531.42 1970.46,1508.25 1977,1475.5C 1983.64,1454.86 1997.48,1441.69 2018.5,1436C 2025.06,1434.15 2031.73,1432.82 2038.5,1432C 2062.93,1429.77 2086.93,1431.94 2110.5,1438.5C 2113.6,1408.77 2100.6,1390.6 2071.5,1384C 2059.12,1382.06 2046.79,1382.39 2034.5,1385C 2023.97,1387.6 2013.64,1390.77 2003.5,1394.5C 1991.93,1392.09 1988.43,1385.42 1993,1374.5C 1994.17,1373.33 1995.33,1372.17 1996.5,1371C 2011.92,1363.98 2027.92,1359.48 2044.5,1357.5 Z M 2049.5,1452.5 C 2070.6,1451.9 2091.27,1454.56 2111.5,1460.5C 2115.6,1498.24 2098.94,1520.4 2061.5,1527C 2047,1529.3 2033.34,1526.97 2020.5,1520C 2003.73,1507.41 1999.89,1491.58 2009,1472.5C 2014.37,1465.48 2021.2,1460.31 2029.5,1457C 2036.2,1455.03 2042.87,1453.53 2049.5,1452.5 Z"/></g>
<g><path style="opacity:0.965" fill="#19252b" d="M 2389.5,1357.5 C 2408.46,1355.61 2414.96,1363.61 2409,1381.5C 2407.59,1382.79 2406.09,1383.95 2404.5,1385C 2363.54,1390.96 2340.37,1414.46 2335,1455.5C 2334.96,1483.87 2334.29,1512.21 2333,1540.5C 2328.07,1548.39 2321.24,1550.56 2312.5,1547C 2309.26,1545.02 2307.09,1542.19 2306,1538.5C 2305.33,1481.5 2305.33,1424.5 2306,1367.5C 2310.06,1359.39 2316.56,1356.56 2325.5,1359C 2330.27,1361.43 2333.1,1365.26 2334,1370.5C 2334.33,1381.17 2334.67,1391.83 2335,1402.5C 2346.76,1379.56 2364.92,1364.56 2389.5,1357.5 Z"/></g>
<g><path style="opacity:0.974" fill="#19252b" d="M 3664.5,1357.5 C 3682.02,1355.18 3688.85,1362.51 3685,1379.5C 3683.83,1382 3682,1383.83 3679.5,1385C 3639.03,1390.81 3615.86,1413.97 3610,1454.5C 3608.8,1482.82 3608.13,1511.15 3608,1539.5C 3602.72,1548.83 3595.22,1551 3585.5,1546C 3583.38,1544.27 3581.88,1542.1 3581,1539.5C 3580.33,1482.17 3580.33,1424.83 3581,1367.5C 3585.06,1359.39 3591.56,1356.56 3600.5,1359C 3602.96,1360.46 3605.13,1362.29 3607,1364.5C 3608.3,1377.74 3608.96,1391.07 3609,1404.5C 3620.41,1380.25 3638.91,1364.58 3664.5,1357.5 Z"/></g>
<g><path style="opacity:0.964" fill="#19252b" d="M 3772.5,1357.5 C 3791.31,1355.94 3809.64,1358.11 3827.5,1364C 3852.5,1375.8 3865.67,1395.63 3867,1423.5C 3867.67,1461.5 3867.67,1499.5 3867,1537.5C 3864.31,1546.77 3858.14,1550.27 3848.5,1548C 3843.9,1546.4 3841.07,1543.24 3840,1538.5C 3839.67,1532.5 3839.33,1526.5 3839,1520.5C 3818.37,1544.5 3792.2,1554.33 3760.5,1550C 3715.41,1542.28 3697.24,1516.11 3706,1471.5C 3713.53,1452.97 3727.03,1441.14 3746.5,1436C 3753.06,1434.15 3759.73,1432.82 3766.5,1432C 3790.93,1429.77 3814.93,1431.94 3838.5,1438.5C 3841.56,1408.74 3828.56,1390.57 3799.5,1384C 3787.12,1382.06 3774.79,1382.39 3762.5,1385C 3751.93,1387.47 3741.59,1390.64 3731.5,1394.5C 3719.83,1392.15 3716.33,1385.48 3721,1374.5C 3722.17,1373.33 3723.33,1372.17 3724.5,1371C 3739.93,1363.98 3755.93,1359.48 3772.5,1357.5 Z M 3776.5,1452.5 C 3797.94,1451.81 3818.94,1454.48 3839.5,1460.5C 3843.94,1495.11 3829.27,1516.94 3795.5,1526C 3779.06,1529.58 3763.39,1527.58 3748.5,1520C 3731.59,1507.43 3727.76,1491.6 3737,1472.5C 3740.93,1466.57 3746.1,1462.07 3752.5,1459C 3760.37,1455.87 3768.37,1453.7 3776.5,1452.5 Z"/></g>
<g><path style="opacity:0.961" fill="#19252b" d="M 5637.5,1357.5 C 5656.48,1355.63 5662.98,1363.63 5657,1381.5C 5655.79,1383.05 5654.29,1384.22 5652.5,1385C 5611.09,1391.08 5587.92,1414.91 5583,1456.5C 5582.67,1483.5 5582.33,1510.5 5582,1537.5C 5578.13,1547.8 5570.96,1550.97 5560.5,1547C 5557.57,1544.74 5555.4,1541.9 5554,1538.5C 5553.01,1480.78 5553.35,1423.11 5555,1365.5C 5559.47,1358.92 5565.64,1356.75 5573.5,1359C 5578.34,1360.82 5581.17,1364.32 5582,1369.5C 5582.33,1380.83 5582.67,1392.17 5583,1403.5C 5594.4,1379.91 5612.57,1364.58 5637.5,1357.5 Z"/></g>
<g><path style="opacity:0.962" fill="#19252b" d="M 2462.5,1358.5 C 2472.47,1356.39 2478.97,1360.06 2482,1369.5C 2482.67,1425.5 2482.67,1481.5 2482,1537.5C 2478.13,1547.8 2470.96,1550.97 2460.5,1547C 2457.57,1544.74 2455.4,1541.9 2454,1538.5C 2453.33,1481.83 2453.33,1425.17 2454,1368.5C 2455.26,1363.75 2458.09,1360.41 2462.5,1358.5 Z"/></g>
<g><path style="opacity:0.963" fill="#19252b" d="M 4510.5,1358.5 C 4517.69,1356.99 4523.52,1358.99 4528,1364.5C 4549.91,1413.98 4572.08,1463.32 4594.5,1512.5C 4614.32,1462.86 4634.15,1413.2 4654,1363.5C 4660.12,1357.82 4666.96,1356.99 4674.5,1361C 4679.09,1365.23 4680.59,1370.39 4679,1376.5C 4652.1,1442.96 4624.1,1508.96 4595,1574.5C 4579.05,1600.83 4555.88,1610.66 4525.5,1604C 4519.23,1602.8 4513.23,1600.8 4507.5,1598C 4503.66,1593.56 4502.49,1588.39 4504,1582.5C 4507.76,1576.24 4513.26,1574.07 4520.5,1576C 4535.19,1582.97 4549.19,1581.97 4562.5,1573C 4570.37,1564.77 4576.37,1555.27 4580.5,1544.5C 4554.94,1489.71 4529.11,1435.05 4503,1380.5C 4499.11,1370.78 4501.61,1363.45 4510.5,1358.5 Z"/></g>
<g><path style="opacity:0.965" fill="#19252b" d="M 5912.5,1358.5 C 5921.85,1356.42 5928.35,1359.76 5932,1368.5C 5947.21,1414.62 5962.71,1460.62 5978.5,1506.5C 5994.49,1461.03 6009.99,1415.36 6025,1369.5C 6028.73,1359.22 6035.89,1355.72 6046.5,1359C 6050.67,1360.5 6053.5,1363.33 6055,1367.5C 6070.86,1414.09 6086.53,1460.76 6102,1507.5C 6118.07,1458.94 6134.74,1410.61 6152,1362.5C 6158.62,1357.61 6165.45,1357.28 6172.5,1361.5C 6176.27,1365.8 6177.44,1370.8 6176,1376.5C 6156.39,1431.99 6136.39,1487.32 6116,1542.5C 6109.86,1549.55 6102.36,1551.39 6093.5,1548C 6092,1546.5 6090.5,1545 6089,1543.5C 6072.47,1496.91 6056.14,1450.24 6040,1403.5C 6023.86,1450.24 6007.53,1496.91 5991,1543.5C 5984.91,1549.64 5977.74,1551.14 5969.5,1548C 5966.24,1545.41 5963.74,1542.24 5962,1538.5C 5942.67,1484.5 5923.33,1430.5 5904,1376.5C 5901.98,1368.01 5904.81,1362.01 5912.5,1358.5 Z"/></g>
</svg>
